<svg width="46" height="63" viewBox="0 0 46 63" fill="none" xmlns="http://www.w3.org/2000/svg">
<path d="M22.9719 62.3037L4.18634 57.3042L0 12.2911H46.0001L41.8093 57.2975L22.9719 62.3037Z" fill="#4353AD"/>
<path d="M38.2216 54.4314L41.8025 15.9716H22.9999V58.4768L38.2216 54.4314" fill="#485FB5"/>
<path d="M23 47.0041L22.9747 47.0103L16.5613 45.3502L16.1513 40.9473H10.3704L11.1771 49.6155L22.9735 52.7549L23 52.7479V47.0041ZM8.55991 21.4923L9.08337 27.0128H23V21.4923H8.55991ZM9.59704 32.666L10.1131 38.1868H23V32.666H9.59704" fill="#EDEDED"/>
<path d="M27.5654 0.058177H34.5403V2.48957H30.4824V2.97607H34.5403V8.56824H27.5654V6.01503H31.6236V5.5289H27.5656V0.058177H27.5654ZM19.1956 0.058177H26.1703V2.48957H22.1124V2.97607H26.1703V8.56824H19.1958V6.01503H23.2538V5.5289H19.1955V0.058177H19.1956ZM10.8259 0.058177H17.8005V2.85426H13.7427V5.65072H17.8009V8.4468H10.8259V0.058177Z" fill="#100F0D"/>
<path d="M36.3662 32.6663L37.4057 21.4926H22.9802V27.0131H31.0947L30.5708 32.6663H22.9802V38.1871H30.0715L29.4026 45.3472L22.98 47.0089V52.7524L34.7856 49.6158L34.872 48.6833L36.2257 34.1488L36.3662 32.6663Z" fill="white"/>
</svg>
