<svg width="20" height="20" viewBox="0 0 20 20" fill="none" xmlns="http://www.w3.org/2000/svg">
<path d="M-7.46167e-07 3.37819L-1.28061e-07 16.8972C-5.74539e-08 18.4415 1.31439 19.6981 2.92969 19.6981L17.0703 19.6981C18.6856 19.6981 20 18.4415 20 16.8972L20 11.2581L12.9297 11.2581L12.9297 13.4988L9.41406 13.4988L9.41406 11.2581L7.03125 11.2581C5.09262 11.2581 3.51562 9.75038 3.51562 7.89697L3.51562 4.49855L7.03125 4.49855L7.03125 7.89697L9.41406 7.89697L9.41406 4.49855L12.9297 5.05873L12.9297 7.89697L20 7.89697L20 3.37818C20 1.8339 18.6856 0.577283 17.0703 0.577283L2.92969 0.577284C1.31439 0.577284 -8.16774e-07 1.8339 -7.46167e-07 3.37819Z" fill="black"/>
</svg>
