<svg width="46" height="63" viewBox="0 0 46 63" fill="none" xmlns="http://www.w3.org/2000/svg">
<path d="M4.16571 57.2598L0 12.2465H45.7746L41.6044 57.2527L22.8592 62.2593L4.16571 57.2598Z" fill="#E53D20"/>
<path d="M22.8873 58.4324L38.0343 54.3868L41.598 15.9269H22.8873V58.4324Z" fill="#F15123"/>
<path d="M22.8873 32.6219H15.3044L14.7806 26.9686H22.8873V21.4479H22.8675H8.51785L8.65507 22.9289L10.0635 38.1425H22.8873V32.6219Z" fill="#EDEDED"/>
<path d="M22.8873 46.9593L22.8622 46.9658L16.4802 45.3055L16.072 40.9026H12.9709H10.3195L11.1224 49.5709L22.8609 52.7102L22.8873 52.7032V46.9593Z" fill="#EDEDED"/>
<path d="M4.25882 0.0137062H7.17105V2.78556H9.83493V0.0137062H12.7473V8.40759H9.83505V5.59688H7.17118V8.40759H4.25903V0.0137062H4.25882Z" fill="#100F0D"/>
<path d="M16.5769 2.79726H14.0131V0.0137062H22.0541V2.79726H19.4892V8.40759H16.5771V2.79726H16.5769Z" fill="#100F0D"/>
<path d="M23.3303 0.0137062H26.3669L28.2348 2.96304L30.1008 0.0137062H33.1386V8.40759H30.2384V4.24711L28.2348 7.23164H28.1848L26.1798 4.24711V8.40759H23.3303V0.0137062Z" fill="#100F0D"/>
<path d="M34.588 0.0137062H37.501V5.63309H41.5963V8.40759H34.588V0.0137062Z" fill="#100F0D"/>
<path d="M22.8675 32.6218V38.1423H29.9239L29.2588 45.3023L22.8675 46.9642V52.7078L34.6153 49.5711L34.7014 48.6384L36.0481 34.1042L36.1879 32.6218H34.6437H22.8675Z" fill="white"/>
<path d="M22.8675 21.4478V26.9685H36.691H36.7093L36.8243 25.7276L37.0854 22.9289L37.2224 21.4478H22.8675" fill="white"/>
</svg>
