<svg width="20" height="20" viewBox="0 0 20 20" fill="none" xmlns="http://www.w3.org/2000/svg">
<path d="M13.75 0L6.25 0C2.79875 0 0 2.66931 0 5.96094L0 13.1141C0 16.4057 2.79875 19.075 6.25 19.075L13.75 19.075C17.2012 19.075 20 16.4057 20 13.1141L20 5.96094C20 2.66931 17.2012 0 13.75 0ZM18.125 13.1141C18.125 15.415 16.1625 17.2867 13.75 17.2867L6.25 17.2867C3.8375 17.2867 1.875 15.415 1.875 13.1141L1.875 5.96094C1.875 3.66002 3.8375 1.78828 6.25 1.78828L13.75 1.78828C16.1625 1.78828 18.125 3.66002 18.125 5.96094L18.125 13.1141Z" fill="black"/>
<path d="M10 4.76877C7.23875 4.76877 5 6.90398 5 9.53752C5 12.1711 7.23875 14.3063 10 14.3063C12.7613 14.3063 15 12.1711 15 9.53752C15 6.90398 12.7613 4.76877 10 4.76877ZM10 12.518C8.2775 12.518 6.875 11.1804 6.875 9.53752C6.875 7.89349 8.2775 6.55705 10 6.55705C11.7225 6.55705 13.125 7.89349 13.125 9.53752C13.125 11.1804 11.7225 12.518 10 12.518Z" fill="black"/>
<path d="M15.375 5.04653C15.7429 5.04653 16.0412 4.76204 16.0412 4.4111C16.0412 4.06016 15.7429 3.77567 15.375 3.77567C15.007 3.77567 14.7087 4.06016 14.7087 4.4111C14.7087 4.76204 15.007 5.04653 15.375 5.04653Z" fill="black"/>
</svg>
