<svg width="29" height="29" viewBox="0 0 29 29" fill="none" xmlns="http://www.w3.org/2000/svg">
<path d="M17.1568 14.7414L28.4489 3.97133C29.1837 3.27078 29.1837 2.13809 28.4489 1.43754C27.7144 0.736987 26.5267 0.736987 25.7922 1.43754L14.4998 12.2076L3.20781 1.43754C2.47295 0.736987 1.28567 0.736987 0.551149 1.43754C-0.183717 2.13809 -0.183717 3.27078 0.551149 3.97133L11.8432 14.7414L0.551149 25.5115C-0.183717 26.2121 -0.183717 27.3448 0.551149 28.0453C0.917206 28.3948 1.39852 28.5703 1.87948 28.5703C2.36045 28.5703 2.84141 28.3948 3.20781 28.0453L14.4998 17.2752L25.7922 28.0453C26.1586 28.3948 26.6396 28.5703 27.1205 28.5703C27.6015 28.5703 28.0825 28.3948 28.4489 28.0453C29.1837 27.3448 29.1837 26.2121 28.4489 25.5115L17.1568 14.7414Z" fill="black"/>
</svg>
