<svg width="20" height="20" viewBox="0 0 20 20" fill="none" xmlns="http://www.w3.org/2000/svg">
<path d="M17.0703 0L2.92969 0C1.31439 0 0 1.2536 0 2.79419L0 16.2808C0 17.8214 1.31439 19.075 2.92969 19.075L8.82812 19.075L8.82812 12.3317L6.48437 12.3317L6.48437 8.97866L8.82812 8.97866L8.82812 6.70605C8.82812 4.85709 10.4051 3.35303 12.3437 3.35303L15.8984 3.35303L15.8984 6.70605L12.3437 6.70605L12.3437 8.97866L15.8984 8.97866L15.3125 12.3317L12.3437 12.3317L12.3437 19.075L17.0703 19.075C18.6856 19.075 20 17.8214 20 16.2808L20 2.79419C20 1.2536 18.6856 0 17.0703 0Z" fill="black"/>
</svg>
