<svg width="20" height="20" viewBox="0 0 20 20" fill="none" xmlns="http://www.w3.org/2000/svg">
<path d="M-6.01032e-07 6.23375L-2.73196e-07 13.4041C-1.22337e-07 16.7036 2.79875 19.3793 6.25 19.3793L13.75 19.3793C17.2013 19.3793 20 16.7036 20 13.4041L20 6.23375C20 2.93422 17.2012 0.258497 13.75 0.258497L6.25 0.258497C2.79875 0.258497 -7.5189e-07 2.93422 -6.01032e-07 6.23375ZM13.75 2.05107C16.1625 2.05107 18.125 3.9273 18.125 6.23375L18.125 13.4041C18.125 15.7105 16.1625 17.5867 13.75 17.5867L6.25 17.5867C3.8375 17.5867 1.875 15.7105 1.875 13.4041L1.875 6.23375C1.875 3.92731 3.8375 2.05107 6.25 2.05107L13.75 2.05107Z" fill="black"/>
<path d="M5 9.81892C5 12.4588 7.23875 14.5991 10 14.5991C12.7613 14.5991 15 12.4588 15 9.81892C15 7.17905 12.7612 5.03871 10 5.03871C7.23875 5.03871 5 7.17905 5 9.81892ZM13.125 9.81892C13.125 11.4657 11.7225 12.8065 10 12.8065C8.27625 12.8065 6.875 11.4657 6.875 9.81892C6.875 8.17213 8.27625 6.83129 10 6.83129C11.7225 6.83129 13.125 8.17213 13.125 9.81892Z" fill="black"/>
<path d="M5.29123 4.68019C5.29123 4.32841 4.99295 4.04323 4.62499 4.04323C4.25703 4.04323 3.95874 4.32841 3.95874 4.68019C3.95874 5.03198 4.25703 5.31715 4.62499 5.31715C4.99295 5.31715 5.29123 5.03198 5.29123 4.68019Z" fill="black"/>
</svg>
