<svg width="30" height="29" viewBox="0 0 30 29" fill="none" xmlns="http://www.w3.org/2000/svg">
<path d="M-9.01547e-07 8.96281L-4.09794e-07 19.7183C-1.83506e-07 24.6676 4.19812 28.6812 9.375 28.6812L20.625 28.6812C25.8019 28.6812 30 24.6676 30 19.7183L30 8.96281C30 4.0135 25.8019 -7.92796e-05 20.625 -7.90632e-05L9.375 -7.85931e-05C4.19812 -7.83767e-05 -1.12784e-06 4.0135 -9.01547e-07 8.96281ZM20.625 2.68879C24.2437 2.68879 27.1875 5.50313 27.1875 8.96281L27.1875 19.7183C27.1875 23.1779 24.2437 25.9923 20.625 25.9923L9.375 25.9923C5.75625 25.9923 2.8125 23.1779 2.8125 19.7183L2.8125 8.96281C2.8125 5.50313 5.75625 2.68879 9.375 2.68879L20.625 2.68879Z" fill="black"/>
<path d="M7.5 14.3407C7.5 18.3005 10.8581 21.511 15 21.511C19.1419 21.511 22.5 18.3005 22.5 14.3407C22.5 10.3809 19.1419 7.17037 15 7.17037C10.8581 7.17037 7.5 10.3809 7.5 14.3407ZM19.6875 14.3407C19.6875 16.8108 17.5837 18.8221 15 18.8221C12.4144 18.8221 10.3125 16.8108 10.3125 14.3407C10.3125 11.8705 12.4144 9.85924 15 9.85924C17.5837 9.85924 19.6875 11.8705 19.6875 14.3407Z" fill="black"/>
<path d="M7.93685 6.63245C7.93685 6.10477 7.48942 5.677 6.93748 5.677C6.38554 5.677 5.93811 6.10477 5.93811 6.63245C5.93811 7.16012 6.38554 7.58789 6.93748 7.58789C7.48942 7.58789 7.93685 7.16012 7.93685 6.63245Z" fill="black"/>
</svg>
