<svg width="30" height="30" viewBox="0 0 30 30" fill="none" xmlns="http://www.w3.org/2000/svg">
<path d="M15 29.6036C23.2863 29.6036 30 23.185 30 15.263C30 7.34098 23.2863 0.922363 15 0.922363C6.71375 0.922363 0 7.34098 0 15.263C0 23.185 6.71375 29.6036 15 29.6036ZM6.86375 14.9523L21.3263 9.62114C21.9975 9.3893 22.5837 9.77769 22.3662 10.7481L22.3675 10.7469L19.905 21.8382C19.7225 22.6245 19.2338 22.8157 18.55 22.4452L14.8 19.803L12.9912 21.4689C12.7912 21.6601 12.6225 21.8214 12.235 21.8214L12.5013 18.1729L19.4512 12.1702C19.7537 11.9156 19.3837 11.7722 18.985 12.0256L10.3963 17.1954L6.69375 16.0911C5.89 15.8474 5.8725 15.3227 6.86375 14.9523V14.9523Z" fill="black"/>
</svg>
